<svg xmlns="http://www.w3.org/2000/svg" width="19.454" height="20"><path d="M17.159 10.98a7.793 7.793 0 00.07-.98 7.793 7.793 0 00-.07-.98l2.11-1.65a.5.5 0 00.12-.64l-2-3.46a.5.5 0 00-.61-.22l-2.49 1a7.306 7.306 0 00-1.69-.98l-.38-2.65a.488.488 0 00-.49-.42h-4a.488.488 0 00-.49.42l-.38 2.65a7.683 7.683 0 00-1.69.98l-2.49-1a.488.488 0 00-.61.22l-2 3.46a.493.493 0 00.12.64l2.11 1.65a7.931 7.931 0 00-.07.98 7.931 7.931 0 00.07.98l-2.11 1.65a.5.5 0 00-.12.64l2 3.46a.5.5 0 00.61.22l2.49-1a7.306 7.306 0 001.69.98l.38 2.65a.488.488 0 00.49.42h4a.488.488 0 00.49-.42l.38-2.65a7.683 7.683 0 001.69-.98l2.49 1a.488.488 0 00.61-.22l2-3.46a.5.5 0 00-.12-.64zm-7.43 2.52a3.5 3.5 0 113.5-3.5 3.5 3.5 0 01-3.5 3.5z" fill="#fff"/></svg>