<svg xmlns="http://www.w3.org/2000/svg" xmlns:xlink="http://www.w3.org/1999/xlink" width="125" height="125" viewBox="0 0 125 125">
  <defs>
    <filter id="Ellipse_9" x="0" y="0" width="125" height="125" filterUnits="userSpaceOnUse">
      <feOffset dy="10" input="SourceAlpha"/>
      <feGaussianBlur stdDeviation="15" result="blur"/>
      <feFlood flood-color="#425965" flood-opacity="0.161"/>
      <feComposite operator="in" in2="blur"/>
      <feComposite in="SourceGraphic"/>
    </filter>
    <clipPath id="clip-path">
      <rect width="18.914" height="18.914" fill="none"/>
    </clipPath>
  </defs>
  <g id="icn_surfing" transform="translate(-16 -315)">
    <g transform="matrix(1, 0, 0, 1, 16, 315)" filter="url(#Ellipse_9)">
      <circle id="Ellipse_9-2" data-name="Ellipse 9" cx="17.5" cy="17.5" r="17.5" transform="translate(45 35)" fill="#fff"/>
    </g>
    <g id="icn_surfing-2" data-name="icn_surfing" transform="translate(69.293 358.293)" clip-path="url(#clip-path)">
      <g id="Group_65" data-name="Group 65" transform="translate(0.707 0.707)">
        <rect id="Rectangle_102" data-name="Rectangle 102" width="12.379" height="12.379" transform="matrix(0.724, -0.69, 0.69, 0.724, 0, 8.536)" stroke-width="2" stroke="#d97d54" stroke-linecap="round" stroke-linejoin="round" stroke-miterlimit="10" fill="none"/>
        <path id="Path_106" data-name="Path 106" d="M1.7,11.441a7.685,7.685,0,0,0,4.984-.85c1.4-.8,2.525-2.3,5.383-1.65a2.6,2.6,0,0,0-1.263,1.1c-.465,1.05,1.13,1.5,2.193,1.6a39.289,39.289,0,0,0,4.851-.1" transform="translate(-1.225 -3.248)" fill="none" stroke="#d97d54" stroke-linecap="round" stroke-linejoin="round" stroke-miterlimit="10" stroke-width="2"/>
      </g>
    </g>
  </g>
</svg>
